<svg width="141" height="71" viewBox="0 0 141 71" fill="none" xmlns="http://www.w3.org/2000/svg">
<path d="M46.3816 4.55349C46.6261 9.97366 51.955 7.11897 53.7465 10.5694C55.0231 13.0276 54.4529 16.0926 55.3943 18.6674C56.1125 20.6307 57.7473 22.0987 58.6106 23.9888C59.6991 26.3725 59.6037 29.7456 59.3284 32.3183C59.1336 34.1381 57.2742 35.1358 57.0717 36.6891C56.8997 38.0093 59.2 37.5944 59.79 37.1915C60.5015 36.7054 60.4811 35.8045 60.8579 35.0948C62.4751 32.0495 61.2005 27.2094 61.9638 23.7575C62.2506 22.4595 63.64 21.3751 63.7042 20.0555C63.7873 18.3465 60.8364 18.0456 61.5887 16.1356C62.1126 14.8048 66.6745 14.0066 68.0255 13.1143C68.0274 15.7832 67.8153 20.7898 69.8969 22.7759C71.2221 24.0404 73.4497 22.5387 74.8605 22.0526C75.707 21.7609 78.3322 21.9899 79.1473 22.3964C80.0511 22.8473 80.5133 24.13 81.2608 24.8068C83.0982 26.471 85.4969 27.3284 86.5518 29.7733C87.5225 32.023 85.0594 36.7258 88.5345 37.2761C89.1271 37.3701 89.7601 37.2231 90.3529 37.1772C90.608 35.1259 91.2458 31.5003 90.5094 29.5419C90.1096 28.4788 88.9536 27.693 88.3124 26.7655C87.0998 25.0109 86.4447 22.1501 86.9355 20.0557H87.3911C88.2419 23.2217 89.4462 29.1153 93.3146 29.5419C92.9127 27.5608 90.7796 25.5961 89.9892 23.5263C88.2592 18.9944 90.0731 13.8222 84.6572 11.3358C80.9153 9.6181 76.7133 10.3863 72.8099 10.5601C69.7999 10.6942 66.5309 10.1182 63.6968 9.05494C59.4748 7.47111 58.9752 1.30114 54.1279 0.895081C51.686 0.690492 51.4383 2.53309 49.7957 3.74052C48.8439 4.43993 47.5176 4.52974 46.3816 4.55355V4.55349Z" fill="#FF8966"/>
<path d="M60.962 36.2514C63.1911 40.9484 65.4406 33.4114 67.1347 33.1905C68.2714 33.0421 69.315 34.9973 69.8475 35.7887C69.4115 35.885 65.2638 35.9487 67.0241 37.4019C67.8786 38.1076 70.3844 37.6398 71.4422 37.6398H79.872C81.1325 37.6398 82.777 37.3655 83.9692 37.8465C85.6827 38.5376 84.1356 39.5754 84.8272 40.5639C85.7688 41.9101 88.1185 38.7851 86.4452 37.2739C85.2356 36.1815 82.7671 36.1432 81.239 36.2908C80.3959 36.3722 79.1156 36.8001 78.4113 36.1121C77.0488 34.7802 77.4965 30.8934 76.8036 29.0789C75.6947 26.1746 73.4418 25.267 71.4422 23.2946C67.833 23.227 68.0248 15.6086 68.0248 13.1141C66.5479 13.7774 65.3054 14.5939 63.696 14.9885C63.0947 15.1359 62.0978 15.0808 61.7828 15.7328C60.8405 17.6845 63.2423 18.3099 63.5418 19.8242C63.8355 21.3087 61.8476 23.3452 61.8745 25.1455C61.9062 27.2781 63.5149 28.3471 64.1123 30.2358C64.8616 32.605 62.7635 35.1666 60.962 36.2514Z" fill="white"/>
<path d="M70.4505 36.0263L69.9291 36.1414C69.8451 36.16 69.703 36.1734 69.5629 36.1861C69.5202 36.1901 69.4752 36.194 69.4278 36.1982C69.3035 36.2092 69.1638 36.2217 69.0125 36.2369C68.5932 36.2786 68.1102 36.339 67.7008 36.4375C67.496 36.4869 67.3218 36.5427 67.1882 36.6047C67.0485 36.6695 66.988 36.725 66.9678 36.7539C66.967 36.755 66.9663 36.7559 66.9655 36.7566C66.9615 36.7611 66.9585 36.7644 66.9694 36.7926C66.9913 36.8497 67.0642 36.9614 67.2637 37.1261C67.3999 37.2385 67.6357 37.3278 67.982 37.3795C68.3206 37.43 68.7208 37.4383 69.144 37.4242C69.5649 37.4102 69.9939 37.3748 70.3918 37.3419L70.3941 37.3417L70.4033 37.3408C70.7907 37.3088 71.1603 37.2783 71.4419 37.2783H79.8717C80.1752 37.2783 80.5045 37.2618 80.8563 37.2434L80.8919 37.2416C81.2295 37.2241 81.5859 37.2054 81.9414 37.2013C82.6714 37.1928 83.4429 37.2432 84.1108 37.5126L70.4505 36.0263ZM70.4505 36.0263L70.1573 35.5906L70.4505 36.0263ZM70.4505 36.0263L70.1573 35.5906L70.4505 36.0263ZM70.1573 35.5906C70.0931 35.4952 70.0167 35.3744 69.9301 35.2378C69.6868 34.8538 69.3635 34.3433 69.0065 33.9107C68.7609 33.613 68.4802 33.3265 68.1704 33.1229C67.8594 32.9185 67.49 32.7793 67.085 32.8321C66.7505 32.8758 66.4576 33.0873 66.2142 33.3202C65.9622 33.5611 65.7114 33.8764 65.4661 34.2132C65.2624 34.493 65.0646 34.7829 64.8672 35.0724C64.5691 35.5096 64.2717 35.9458 63.9554 36.3439C63.6995 36.6658 63.4517 36.9345 63.2123 37.1259C62.9706 37.3191 62.766 37.4104 62.5942 37.4258C62.3309 37.4495 61.9274 37.2933 61.4389 36.3793C62.3035 35.798 63.1919 34.9238 63.812 33.9106C64.4992 32.7874 64.883 31.4465 64.4665 30.1294L64.1769 30.2164L64.4665 30.1294C64.2086 29.3141 63.7684 28.6344 63.3649 28.0113C63.273 27.8696 63.1832 27.731 63.0979 27.5943C62.6281 26.8421 62.2595 26.1093 62.2452 25.1404L70.1573 35.5906ZM70.1573 35.5906L62.2452 25.1404L70.1573 35.5906ZM62.2452 25.1404C62.2395 24.7535 62.3422 24.3363 62.5125 23.8893L62.2452 25.1404ZM62.2452 25.1404L62.5125 23.8893L62.2452 25.1404ZM62.5125 23.8893C62.6741 23.465 62.8871 23.0364 63.1055 22.5971L62.5125 23.8893ZM62.5125 23.8893L63.1055 22.5971L62.5125 23.8893ZM63.1055 22.5971C63.1175 22.5727 63.1298 22.5483 63.1418 22.5241L63.1055 22.5971ZM63.1055 22.5971L63.1418 22.5241L63.1055 22.5971ZM63.1418 22.5241C63.3686 22.0675 63.5999 21.5962 63.7535 21.1419L63.1418 22.5241ZM63.1418 22.5241L63.7535 21.1419L63.1418 22.5241ZM63.7535 21.1419C63.9068 20.6886 63.9964 20.2142 63.9058 19.756L63.7535 21.1419ZM69.0707 22.2179C69.5785 23.0091 70.2961 23.5783 71.2809 23.6492L63.7862 15.3392C64.6279 15.1328 65.3678 14.8174 66.0746 14.4761C66.3544 14.3409 66.6227 14.2051 66.8895 14.07C67.1424 13.942 67.3937 13.8147 67.652 13.6896C67.6485 15.0434 67.6602 17.2229 68.0143 19.1773C68.219 20.3071 68.5438 21.3972 69.0707 22.2179ZM69.4364 35.8345C69.4232 35.8356 69.4097 35.8368 69.3961 35.8381C68.2412 35.9404 65.5435 36.1799 67.0238 37.4019C67.6637 37.9303 69.229 37.8009 70.4191 37.7024C70.8187 37.6693 71.1761 37.6398 71.4419 37.6398H79.8717C80.1967 37.6398 80.5472 37.6216 80.9089 37.6028C81.9501 37.5487 83.0841 37.4896 83.9688 37.8466C84.9768 38.2532 84.8566 38.7796 84.7275 39.3454C84.6369 39.7414 84.5421 40.1569 84.8269 40.5639L69.4364 35.8345ZM61.9764 16.8897C61.9044 16.626 61.9148 16.3083 62.1183 15.8868L63.9058 19.7558C63.8142 19.2925 63.5648 18.9143 63.2955 18.5922C63.1606 18.4308 63.0149 18.2771 62.8762 18.1321C62.8589 18.1142 62.8418 18.0963 62.8248 18.0786C62.7023 17.951 62.5864 17.8301 62.4779 17.7069C62.2292 17.4251 62.0519 17.1668 61.9764 16.8897Z" stroke="#706C61" stroke-opacity="0.1" stroke-width="0.4"/>
<path d="M9.09095 62.7878C6.78795 62.7878 4.89187 62.0539 3.40271 60.586C1.93087 59.1182 1.19495 57.0513 1.19495 54.3856C1.19495 51.7198 2.00013 49.6446 3.6105 48.1599C5.22087 46.6751 7.15158 45.9329 9.40263 45.9329C11.013 45.9329 12.2597 46.2787 13.1428 46.9705C13.7662 47.4428 14.1905 47.8646 14.4156 48.2359L12.7273 50.5136L12.1039 50.3364L11.974 47.9575C11.1775 47.6874 10.1645 47.5526 8.9351 47.5526C7.72301 47.5526 6.6927 47.738 5.84424 48.1093C4.28582 49.5266 3.5066 51.5342 3.5066 54.1326C3.5066 56.4102 4.11266 58.1648 5.32476 59.3966C6.53686 60.6113 8.06931 61.2187 9.9221 61.2187C11.3247 61.2187 12.7705 60.8559 14.2597 60.1305L14.6493 60.8644C14.1991 61.3029 13.4805 61.7332 12.4935 62.1551C11.5238 62.5768 10.3896 62.7878 9.09095 62.7878ZM18.3329 59.2194C18.3329 59.928 18.532 60.4257 18.9303 60.7126C19.3287 60.9993 19.7875 61.1428 20.3069 61.1428C20.8437 61.1428 21.5537 60.9993 22.4368 60.7126L22.4887 57.7769C20.2722 57.8949 18.8956 58.266 18.3589 58.8904C18.3416 58.9746 18.3329 59.0844 18.3329 59.2194ZM22.4628 61.8261C21.3372 62.4671 20.3069 62.7878 19.3719 62.7878C18.4368 62.7878 17.6922 62.5009 17.1381 61.9273C16.6013 61.3367 16.3329 60.5943 16.3329 59.7002C16.3329 58.7892 16.7831 58.0889 17.6836 57.5997C18.6014 57.1104 20.203 56.7982 22.4887 56.6633L22.5147 55.0183C22.532 54.2591 22.3416 53.6517 21.9433 53.1962C21.5624 52.7236 21.0342 52.4876 20.3589 52.4876C19.6836 52.4876 19.0949 52.5635 18.5927 52.7153L18.3849 54.6387L17.7615 54.8159L16.3329 52.8419C16.7139 52.4199 17.2853 52.0067 18.0472 51.6018C18.8092 51.1969 19.7183 50.9944 20.7745 50.9944C23.3546 50.9944 24.6445 52.5212 24.6445 55.5751L24.5147 61.2187L26.3069 61.8261L26.151 62.3829L23.9433 62.7878L23.4238 62.5853L22.5926 61.8767L22.4628 61.8261ZM22.8783 46.6162C22.8783 46.6162 22.8871 46.6162 22.9043 46.6162L24.3329 45.4267L24.7744 45.7051L23.4238 48.2106L22.9043 48.3371C22.454 48.3371 21.6576 48.1176 20.5147 47.6791C19.3719 47.2404 18.6533 47.0211 18.3589 47.0211C18.3589 47.0211 18.3502 47.0211 18.3329 47.0211L16.9044 48.2106L16.4628 47.9322L17.8134 45.4267L18.3329 45.3002C18.7832 45.3002 19.5797 45.5194 20.7225 45.9582C21.8654 46.3967 22.5839 46.6162 22.8783 46.6162ZM29.7267 56.6127C29.7267 59.6496 30.9127 61.1681 33.2851 61.1681C34.1507 61.1681 34.8954 61.0416 35.5188 60.7885C36.1594 59.9786 36.4798 58.7722 36.4798 57.1695C36.4798 54.1326 35.2936 52.6141 32.9214 52.6141C32.0556 52.6141 31.3111 52.7406 30.6877 52.9937C30.0469 53.8036 29.7267 55.0098 29.7267 56.6127ZM32.9474 62.7878C31.337 62.7878 30.0296 62.2731 29.0254 61.244C28.0209 60.2147 27.5189 58.7639 27.5189 56.8911C27.5189 55.0013 28.0729 53.5505 29.1812 52.5382C30.2894 51.5089 31.6487 50.9944 33.2591 50.9944C34.8695 50.9944 36.1767 51.5089 37.1811 52.5382C38.1854 53.5673 38.6876 55.0266 38.6876 56.9164C38.6876 58.7892 38.1334 60.24 37.0253 61.2693C35.9169 62.2816 34.5578 62.7878 32.9474 62.7878ZM52.313 52.6141C51.9147 52.4453 51.3 52.361 50.4689 52.361C49.655 52.361 49.0403 52.5635 48.6248 52.9684C48.4689 53.2045 48.391 53.4829 48.391 53.8036C48.391 54.5122 48.8325 55.0266 49.7156 55.3473L52.365 56.2584C53.1095 56.5115 53.7069 56.9247 54.1571 57.4985C54.6074 58.0552 54.8325 58.7132 54.8325 59.4725C54.8325 60.5354 54.4169 61.3536 53.5857 61.9273C52.7546 62.5009 51.7763 62.7878 50.6507 62.7878C49.5426 62.7878 48.6075 62.6106 47.8455 62.2563C47.101 61.885 46.5556 61.4971 46.2092 61.0922L47.5339 58.9916L48.1832 59.1688L48.2871 60.8644C48.8932 61.2017 49.6637 61.3706 50.5988 61.3706C52.1744 61.3706 52.9624 60.8474 52.9624 59.8015C52.9624 59.3796 52.8238 59.0422 52.5468 58.7892C52.2698 58.5361 51.8195 58.3083 51.1961 58.1059L48.8066 57.3466C48.0966 57.1104 47.5511 56.7223 47.1702 56.1825C46.7893 55.6425 46.5988 55.0351 46.5988 54.3603C46.5988 53.2974 47.0316 52.4706 47.8975 51.8802C48.7633 51.2896 49.7676 50.9944 50.9104 50.9944C51.603 50.9944 52.2523 51.1293 52.8585 51.3993C53.7069 51.7536 54.2783 52.1501 54.5727 52.5888L53.1442 54.5628L52.5208 54.3856L52.313 52.6141ZM56.79 56.8911C56.79 55.0351 57.3354 53.5926 58.4263 52.5635C59.5172 51.5174 60.7899 50.9944 62.2444 50.9944C63.6989 50.9944 64.7986 51.4161 65.5431 52.2598C66.2878 53.0864 66.66 54.2253 66.66 55.6763V56.5115L66.2703 56.8911H58.9977C59.0324 58.1901 59.4048 59.2277 60.1146 60.0039C60.8246 60.78 61.7337 61.1681 62.8418 61.1681C63.9674 61.1681 65.041 60.9486 66.0626 60.5101L66.4262 61.1681C66.2184 61.3706 65.9674 61.5813 65.673 61.8008C65.3787 62.0032 64.9025 62.2225 64.2444 62.4588C63.6038 62.6781 62.9285 62.7878 62.2184 62.7878C60.6081 62.7878 59.3009 62.2731 58.2964 61.244C57.2922 60.1979 56.79 58.7469 56.79 56.8911ZM61.9587 52.6141C61.145 52.6141 60.4782 52.7406 59.9587 52.9937C59.7509 53.2468 59.5432 53.6517 59.3354 54.2085C59.145 54.7652 59.0411 55.2967 59.0237 55.8029L64.5821 55.651C64.5821 53.6264 63.7077 52.6141 61.9587 52.6141ZM84.9734 55.1702C84.9734 54.3097 84.7656 53.6938 84.3501 53.3227C83.9519 52.9346 83.2939 52.7406 82.3761 52.7406C81.4585 52.7406 80.48 52.8755 79.441 53.1456C79.6143 53.7023 79.7008 54.2759 79.7008 54.8665V61.2187L81.7527 62.0286L81.5969 62.5853H75.7788L75.6229 62.0286L76.7917 61.5477C77.1034 61.4295 77.3112 61.3029 77.4151 61.1681C77.5364 61.0331 77.5969 60.8391 77.5969 60.586V55.1702C77.5969 54.3097 77.3891 53.6938 76.9735 53.3227C76.5754 52.9346 75.9261 52.7406 75.0255 52.7406C74.1252 52.7406 73.2248 52.8502 72.3242 53.0696V61.2187L74.3762 62.0286L74.2203 62.5853H68.4022L68.2464 62.0286L69.4152 61.5477C69.7269 61.4295 69.9347 61.3029 70.0386 61.1681C70.1599 61.0331 70.2204 60.8391 70.2204 60.586V53.019L68.4022 52.7406L68.2464 52.1839L71.597 50.9944L72.1165 51.1969L72.1684 51.9055L72.2723 51.9561C73.4671 51.3149 74.7138 50.9944 76.0125 50.9944C77.3112 50.9944 78.2722 51.374 78.8956 52.1332C80.4195 51.374 81.8653 50.9944 83.2332 50.9944C85.7961 50.9944 87.0773 52.2851 87.0773 54.8665V61.2187L89.1292 62.0286L88.9734 62.5853H83.1553L82.9994 62.0286L84.1683 61.5477C84.4799 61.4295 84.6877 61.3029 84.7916 61.1681C84.913 61.0331 84.9734 60.8391 84.9734 60.586V55.1702ZM103.02 52.7153C102.639 52.6141 102.033 52.5635 101.201 52.5635C100.37 52.5635 99.6603 52.7068 99.0716 52.9937C98.4135 53.8036 98.0846 54.9592 98.0846 56.4609C98.0846 57.9623 98.4482 59.1265 99.1755 59.9533C99.9027 60.7632 100.838 61.1681 101.981 61.1681C103.123 61.1681 104.188 60.9486 105.175 60.5101L105.539 61.1681C105.331 61.3706 105.08 61.5813 104.786 61.8008C104.491 62.0032 104.015 62.2225 103.357 62.4588C102.716 62.6781 102.041 62.7878 101.331 62.7878C99.7209 62.7878 98.4135 62.2731 97.4093 61.244C96.4048 60.1979 95.9028 58.7469 95.9028 56.8911C95.9028 55.0351 96.4482 53.5926 97.5391 52.5635C98.6473 51.5174 99.9892 50.9944 101.565 50.9944C102.344 50.9944 103.037 51.1377 103.643 51.4246C104.249 51.7113 104.656 51.9644 104.864 52.1839C105.072 52.4031 105.236 52.6224 105.357 52.8419L103.851 54.8159L103.227 54.6387L103.02 52.7153ZM109.165 59.2194C109.165 59.928 109.364 60.4257 109.762 60.7126C110.16 60.9993 110.619 61.1428 111.139 61.1428C111.675 61.1428 112.386 60.9993 113.269 60.7126L113.321 57.7769C111.104 57.8949 109.727 58.266 109.191 58.8904C109.173 58.9746 109.165 59.0844 109.165 59.2194ZM113.295 61.8261C112.169 62.4671 111.139 62.7878 110.204 62.7878C109.269 62.7878 108.524 62.5009 107.97 61.9273C107.433 61.3367 107.165 60.5943 107.165 59.7002C107.165 58.7892 107.615 58.0889 108.515 57.5997C109.433 57.1104 111.035 56.7982 113.321 56.6633L113.347 55.0183C113.364 54.2591 113.173 53.6517 112.775 53.1962C112.394 52.7236 111.866 52.4876 111.191 52.4876C110.515 52.4876 109.927 52.5635 109.425 52.7153L109.217 54.6387L108.593 54.8159L107.165 52.8419C107.546 52.4199 108.117 52.0067 108.879 51.6018C109.641 51.1969 110.55 50.9944 111.606 50.9944C114.186 50.9944 115.476 52.5212 115.476 55.5751L115.347 61.2187L117.139 61.8261L116.983 62.3829L114.775 62.7878L114.256 62.5853L113.424 61.8767L113.295 61.8261ZM124.299 52.6141C123.9 52.4453 123.286 52.361 122.455 52.361C121.641 52.361 121.026 52.5635 120.61 52.9684C120.455 53.2045 120.377 53.4829 120.377 53.8036C120.377 54.5122 120.818 55.0266 121.701 55.3473L124.351 56.2584C125.095 56.5115 125.693 56.9247 126.143 57.4985C126.593 58.0552 126.818 58.7132 126.818 59.4725C126.818 60.5354 126.403 61.3536 125.571 61.9273C124.74 62.5009 123.762 62.7878 122.636 62.7878C121.528 62.7878 120.593 62.6106 119.831 62.2563C119.087 61.885 118.541 61.4971 118.195 61.0922L119.52 58.9916L120.169 59.1688L120.273 60.8644C120.879 61.2017 121.649 61.3706 122.584 61.3706C124.16 61.3706 124.948 60.8474 124.948 59.8015C124.948 59.3796 124.809 59.0422 124.532 58.7892C124.255 58.5361 123.805 58.3083 123.182 58.1059L120.792 57.3466C120.082 57.1104 119.537 56.7223 119.156 56.1825C118.775 55.6425 118.585 55.0351 118.585 54.3603C118.585 53.2974 119.017 52.4706 119.883 51.8802C120.749 51.2896 121.753 50.9944 122.896 50.9944C123.589 50.9944 124.238 51.1293 124.844 51.3993C125.693 51.7536 126.264 52.1501 126.558 52.5888L125.13 54.5628L124.507 54.3856L124.299 52.6141ZM130.776 59.2194C130.776 59.928 130.975 60.4257 131.373 60.7126C131.771 60.9993 132.23 61.1428 132.75 61.1428C133.286 61.1428 133.996 60.9993 134.879 60.7126L134.931 57.7769C132.715 57.8949 131.338 58.266 130.802 58.8904C130.784 58.9746 130.776 59.0844 130.776 59.2194ZM134.905 61.8261C133.78 62.4671 132.75 62.7878 131.815 62.7878C130.88 62.7878 130.135 62.5009 129.581 61.9273C129.044 61.3367 128.776 60.5943 128.776 59.7002C128.776 58.7892 129.226 58.0889 130.126 57.5997C131.044 57.1104 132.646 56.7982 134.931 56.6633L134.957 55.0183C134.975 54.2591 134.784 53.6517 134.386 53.1962C134.005 52.7236 133.477 52.4876 132.802 52.4876C132.126 52.4876 131.538 52.5635 131.035 52.7153L130.828 54.6387L130.204 54.8159L128.776 52.8419C129.157 52.4199 129.728 52.0067 130.49 51.6018C131.252 51.1969 132.161 50.9944 133.217 50.9944C135.797 50.9944 137.087 52.5212 137.087 55.5751L136.957 61.2187L138.75 61.8261L138.594 62.3829L136.386 62.7878L135.866 62.5853L135.035 61.8767L134.905 61.8261Z" fill="#FF8966"/>
</svg>
